<?xml version="1.0" encoding="UTF-8" standalone="no"?>
<!DOCTYPE svg PUBLIC "-//W3C//DTD SVG 1.1//EN" "http://www.w3.org/Graphics/SVG/1.1/DTD/svg11.dtd">
<!-- Created with Vectornator (http://vectornator.io/) -->
<svg height="100%" stroke-miterlimit="10" style="fill-rule:nonzero;clip-rule:evenodd;stroke-linecap:round;stroke-linejoin:round;" version="1.1" viewBox="0 0 1080 1080" width="100%" xml:space="preserve" xmlns="http://www.w3.org/2000/svg" xmlns:xlink="http://www.w3.org/1999/xlink">
<defs>
<clipPath id="TextBounds">
<rect height="360" width="1080" x="0" y="-41"/>
</clipPath>
<clipPath id="TextBounds_2">
<rect height="360" width="1080" x="0" y="319"/>
</clipPath>
<clipPath id="TextBounds_3">
<rect height="360" width="1080" x="0" y="679"/>
</clipPath>
</defs>
<g id="Layer-1">
<g opacity="1">
<g fill="#ff5700" opacity="1" stroke="none">
<path clip-path="url(#TextBounds)" d="M252.335 65.06L252.335 302L345.725 302L345.725 256.79L302.165 256.79L302.165 65.06L252.335 65.06Z"/>
<path clip-path="url(#TextBounds)" d="M402.025 65.06L370.345 302L418.195 302L422.815 254.48L447.565 254.48L452.515 302L502.015 302L470.005 65.06L402.025 65.06ZM430.735 174.29L434.695 129.74L435.355 129.74L439.645 174.29L443.605 213.89L426.775 213.89L430.735 174.29Z"/>
<path clip-path="url(#TextBounds)" d="M576.465 174.29L608.475 302L651.705 302L651.705 65.06L605.835 65.06L605.835 127.43L606.495 177.92L605.835 177.92L579.765 65.06L530.595 65.06L530.595 302L576.465 302L576.465 222.8L575.805 174.29L576.465 174.29Z"/>
<path clip-path="url(#TextBounds)" d="M748.925 65.06L686.885 65.06L686.885 302L748.925 302C786.215 302 808.985 280.22 808.985 247.22L808.985 119.84C808.985 86.84 786.215 65.06 748.925 65.06ZM747.935 108.62C754.535 108.62 758.165 113.57 758.165 121.49L758.165 245.57C758.165 253.49 754.535 258.44 747.935 258.44L737.375 258.44L737.375 108.62L747.935 108.62Z"/>
</g>
<g fill="#ff5700" opacity="1" stroke="none">
<path clip-path="url(#TextBounds_2)" d="M206.1 514.49L206.1 477.2C206.1 444.2 184.65 422.42 147.36 422.42C110.4 422.42 86.64 444.2 86.64 477.2L86.64 609.86C86.64 642.86 110.4 664.64 147.36 664.64C184.65 664.64 206.1 642.86 206.1 609.86L206.1 569.93L156.6 569.93L156.6 608.54C156.6 616.79 153.96 622.07 147.03 622.07C140.1 622.07 137.13 616.79 137.13 608.54L137.13 478.52C137.13 470.27 140.1 464.99 147.03 464.99C153.96 464.99 156.6 470.27 156.6 478.52L156.6 514.49L206.1 514.49Z"/>
<path clip-path="url(#TextBounds_2)" d="M259.1 425.06L227.42 662L275.27 662L279.89 614.48L304.64 614.48L309.59 662L359.09 662L327.08 425.06L259.1 425.06ZM287.81 534.29L291.77 489.74L292.43 489.74L296.72 534.29L300.68 573.89L283.85 573.89L287.81 534.29Z"/>
<path clip-path="url(#TextBounds_2)" d="M447.07 566.3C454.99 566.3 458.62 571.25 458.62 580.16L458.62 631.97C458.62 643.52 459.28 654.41 462.25 662L512.74 662C509.77 654.08 509.11 642.86 509.11 630.32L509.11 579.17C509.11 563.66 503.17 549.8 487.99 543.86C502.51 538.58 509.77 524.72 509.77 508.88L509.77 475.55C509.77 442.22 491.62 425.06 454.33 425.06L387.67 425.06L387.67 662L438.16 662L438.16 566.3L447.07 566.3ZM458.95 481.49L458.95 509.87C458.95 518.12 455.32 522.74 448.72 522.74L438.16 522.74L438.16 468.62L448.72 468.62C455.32 468.62 458.95 473.57 458.95 481.49Z"/>
<path clip-path="url(#TextBounds_2)" d="M542.97 662L609.3 662C646.59 662 664.74 644.84 664.74 611.51L664.74 576.2C664.74 560.69 656.49 547.16 641.31 540.89C655.83 535.61 663.09 521.75 663.09 505.91L663.09 475.55C663.09 442.22 644.94 425.06 607.65 425.06L542.97 425.06L542.97 662ZM612.93 480.5L612.93 506.24C612.93 514.49 609.3 519.11 602.7 519.11L593.13 519.11L593.13 467.63L602.7 467.63C609.3 467.63 612.93 472.25 612.93 480.5ZM614.25 574.88L614.25 606.56C614.25 614.81 610.62 619.43 603.69 619.43L593.13 619.43L593.13 561.02L602.37 561.02C610.62 561.02 614.25 565.97 614.25 574.88Z"/>
<path clip-path="url(#TextBounds_2)" d="M756.02 422.42C718.73 422.42 694.97 444.2 694.97 477.2L694.97 609.86C694.97 642.86 718.73 664.64 756.02 664.64C793.31 664.64 817.07 642.86 817.07 609.86L817.07 477.2C817.07 444.2 793.31 422.42 756.02 422.42ZM756.02 464.99C762.95 464.99 766.25 470.27 766.25 478.52L766.25 608.54C766.25 616.79 762.95 622.07 756.02 622.07C749.09 622.07 745.46 616.79 745.46 608.54L745.46 478.52C745.46 470.27 749.09 464.99 756.02 464.99Z"/>
<path clip-path="url(#TextBounds_2)" d="M896.8 534.29L928.81 662L972.04 662L972.04 425.06L926.17 425.06L926.17 487.43L926.83 537.92L926.17 537.92L900.1 425.06L850.93 425.06L850.93 662L896.8 662L896.8 582.8L896.14 534.29L896.8 534.29Z"/>
</g>
<g fill="#ff5700" opacity="1" stroke="none">
<path clip-path="url(#TextBounds_3)" d="M100.4 968.54C100.4 976.79 97.43 982.07 90.83 982.07C83.9 982.07 80.93 976.79 80.93 968.54L80.93 933.89L31.43 933.89L31.43 969.86C31.43 1003.19 52.88 1024.64 90.17 1024.64C127.46 1024.64 151.22 1003.19 151.22 969.86L151.22 939.17C151.22 918.38 144.29 906.83 128.45 896.27L89.84 868.88C84.56 864.92 82.25 860.96 82.25 852.71L82.25 838.52C82.25 830.27 85.22 824.99 92.15 824.99C98.75 824.99 101.72 830.27 101.72 838.52L101.72 868.88L150.89 868.88L150.89 837.2C150.89 803.87 129.44 782.42 92.15 782.42C54.86 782.42 31.43 803.87 31.43 837.2L31.43 862.61C31.43 883.4 38.36 894.95 54.2 905.51L92.81 933.23C98.09 937.19 100.4 940.82 100.4 949.4L100.4 968.54Z"/>
<path clip-path="url(#TextBounds_3)" d="M292.33 830.27L292.33 785.06L175.51 785.06L175.51 830.27L208.51 830.27L208.51 1022L259.33 1022L259.33 830.27L292.33 830.27Z"/>
<path clip-path="url(#TextBounds_3)" d="M379.65 782.42C342.36 782.42 318.6 804.2 318.6 837.2L318.6 969.86C318.6 1002.86 342.36 1024.64 379.65 1024.64C416.94 1024.64 440.7 1002.86 440.7 969.86L440.7 837.2C440.7 804.2 416.94 782.42 379.65 782.42ZM379.65 824.99C386.58 824.99 389.88 830.27 389.88 838.52L389.88 968.54C389.88 976.79 386.58 982.07 379.65 982.07C372.72 982.07 369.09 976.79 369.09 968.54L369.09 838.52C369.09 830.27 372.72 824.99 379.65 824.99Z"/>
<path clip-path="url(#TextBounds_3)" d="M533.96 926.3C541.88 926.3 545.51 931.25 545.51 940.16L545.51 991.97C545.51 1003.52 546.17 1014.41 549.14 1022L599.63 1022C596.66 1014.08 596 1002.86 596 990.32L596 939.17C596 923.66 590.06 909.8 574.88 903.86C589.4 898.58 596.66 884.72 596.66 868.88L596.66 835.55C596.66 802.22 578.51 785.06 541.22 785.06L474.56 785.06L474.56 1022L525.05 1022L525.05 926.3L533.96 926.3ZM545.84 841.49L545.84 869.87C545.84 878.12 542.21 882.74 535.61 882.74L525.05 882.74L525.05 828.62L535.61 828.62C542.21 828.62 545.84 833.57 545.84 841.49Z"/>
<path clip-path="url(#TextBounds_3)" d="M655.27 785.06L623.59 1022L671.44 1022L676.06 974.48L700.81 974.48L705.76 1022L755.26 1022L723.25 785.06L655.27 785.06ZM683.98 894.29L687.94 849.74L688.6 849.74L692.89 894.29L696.85 933.89L680.02 933.89L683.98 894.29Z"/>
<path clip-path="url(#TextBounds_3)" d="M897.36 874.49L897.36 837.2C897.36 804.2 875.58 782.42 838.29 782.42C801.33 782.42 777.24 804.2 777.24 837.2L777.24 971.51C777.24 1005.17 797.7 1024.64 824.76 1024.64C837.96 1024.64 846.54 1019.03 850.83 1011.77L850.83 1022L897.36 1022L897.36 891.32L836.97 891.32L836.97 933.89L847.86 933.89L847.86 968.54C847.86 976.79 844.89 982.07 837.96 982.07C831.03 982.07 827.73 976.79 827.73 968.54L827.73 838.52C827.73 830.27 831.03 824.99 837.96 824.99C844.89 824.99 847.86 830.27 847.86 838.52L847.86 874.49L897.36 874.49Z"/>
<path clip-path="url(#TextBounds_3)" d="M931.88 785.06L931.88 1022L1026.92 1022L1026.92 976.79L981.71 976.79L981.71 922.34L1021.31 922.34L1021.31 877.13L981.71 877.13L981.71 830.27L1026.92 830.27L1026.92 785.06L931.88 785.06Z"/>
</g>
</g>
</g>
</svg>
